#!OML:ASF X:\für Bonn\!DataBase\2005_08_12_Daniel\c3d\Daniel.ASF
:FULLY-SPECIFIED
:DEGREES
98
root -1.10162 17.1557 0.16072 144.071 -79.3819 -156.88
lowerback 21.5585 -5.01288 3.21971
upperback 4.41341 -6.22591 -0.464911
thorax -7.54634 -3.21794 -0.581735
lowerneck 3.9414 6.00227 0.0205366
upperneck 11.123 7.98239 -4.03889
head 3.07791 3.67723 -1.19305
rclavicle -7.24073e-014 7.55382e-015
rhumerus -35.7808 13.6741 -85.8177
rradius 56.6053
rwrist 4.01142
rhand -37.5231 39.7965
rfingers 7.12502
rthumb -10.5793 10.0828
lclavicle -7.24073e-014 7.55382e-015
lhumerus -4.29808 -0.493758 65.7076
lradius 118.963
lwrist 22.7035
lhand -19.267 -13.3537
lfingers 7.12502
lthumb 7.0474 16.509
rfemur -2.34626 11.0559 19.6954
rtibia 32.4409
rfoot -13.2139 -11.9128
rtoes -12.6407
lfemur 0.539198 -16.4061 -20.7633
ltibia 37.3598
lfoot -38.0874 21.1745
ltoes 6.91992
99
root -1.11764 17.1412 0.108994 145.105 -79.4018 -157.87
lowerback 21.3562 -4.79007 3.2124
upperback 4.33986 -5.93848 -0.51001
thorax -7.51276 -3.07737 -0.720947
lowerneck 3.96846 5.95752 0.144722
upperneck 11.2702 7.92638 -4.04816
head 3.12878 3.64996 -1.21759
rclavicle 5.72003e-014 -5.56597e-015
rhumerus -35.3948 13.7813 -86.1742
rradius 56.2342
rwrist 3.9519
rhand -37.2074 39.4095
rfingers 7.12502
rthumb -10.2747 9.68046
lclavicle 5.72003e-014 -5.56597e-015
lhumerus -6.43913 -1.06548 65.4715
lradius 118.192
lwrist 22.7079
lhand -19.1725 -12.8663
lfingers 7.12502
lthumb 7.13865 16.9933
rfemur -1.36039 10.794 19.7266
rtibia 31.1321
rfoot -14.1296 -11.6678
rtoes -12.816
lfemur 0.550015 -16.5433 -20.8505
ltibia 37.4962
lfoot -38.3463 21.2137
ltoes 6.86757
100
root -1.13193 17.1273 0.056297 145.928 -79.4487 -158.665
lowerback 21.2038 -4.60141 3.23965
upperback 4.25915 -5.6868 -0.564803
thorax -7.51811 -2.95475 -0.874327
lowerneck 4.01064 5.92386 0.279189
upperneck 11.4179 7.88669 -4.08853
head 3.17986 3.63009 -1.25426
rclavicle -9.78021e-014 7.15625e-015
rhumerus -35.0221 13.9338 -86.5545
rradius 55.823
rwrist 3.84103
rhand -36.8892 39.1393
rfingers 7.12502
rthumb -9.96771 9.39528
lclavicle -9.78021e-014 7.15625e-015
lhumerus -8.59466 -1.67206 65.2645
lradius 117.348
lwrist 22.7375
lhand -19.0518 -12.3124
lfingers 7.12502
lthumb 7.25518 17.5432
rfemur -0.421519 10.5056 19.7611
rtibia 29.9131
rfoot -14.9202 -11.3618
rtoes -13.0213
lfemur 0.555928 -16.6204 -20.885
ltibia 37.6216
lfoot -38.5073 21.24
ltoes 6.66
101
root -1.14646 17.1162 0.00384072 146.725 -79.4892 -159.44
lowerback 21.0576 -4.41129 3.28403
upperback 4.19249 -5.42996 -0.612099
thorax -7.51052 -2.83037 -1.0302
lowerneck 4.0425 5.89835 0.310057
upperneck 11.5353 7.85096 -4.05494
head 3.21344 3.61146 -1.24925
rclavicle 4.65156e-014 -1.31198e-014
rhumerus -34.638 14.0404 -86.8895
rradius 55.4138
rwrist 3.78461
rhand -36.5156 38.8549
rfingers 7.12502
rthumb -9.60731 9.09397
lclavicle 4.65156e-014 -1.31198e-014
lhumerus -10.7281 -2.31774 65.1825
lradius 116.39
lwrist 22.7555
lhand -18.9576 -11.6939
lfingers 7.12502
lthumb 7.34611 18.1586
rfemur 0.439671 10.279 19.8009
rtibia 28.8035
rfoot -15.6363 -11.1179
rtoes -13.2484
lfemur 0.602591 -16.7219 -20.9239
ltibia 37.7066
lfoot -38.6713 21.2533
ltoes 6.64093
102
root -1.16081 17.1076 -0.0494187 147.346 -79.5492 -160.057
lowerback 20.9307 -4.23856 3.38469
upperback 4.13899 -5.18596 -0.683186
thorax -7.50512 -2.7139 -1.23824
lowerneck 4.07226 5.87192 0.356507
upperneck 11.642 7.81431 -4.01901
head 3.24431 3.59366 -1.24615
rclavicle -3.51103e-014 -3.18055e-015
rhumerus -34.2904 14.127 -87.2271
rradius 55.0146
rwrist 3.7256
rhand -36.1644 38.5847
rfingers 7.12502
rthumb -9.26845 8.80845
lclavicle -3.51103e-014 -3.18055e-015
lhumerus -12.8766 -2.99654 65.1914
lradius 115.316
lwrist 22.7556
lhand -18.8441 -11.0524
lfingers 7.12502
lthumb 7.45563 18.7962
rfemur 1.23672 10.1122 19.874
rtibia 27.814
rfoot -16.2523 -10.9635
rtoes -13.4784
lfemur 0.672066 -16.7639 -20.9228
ltibia 37.7506
lfoot -38.7247 21.2872
ltoes 6.38225
103
root -1.1741 17.103 -0.102644 147.935 -79.6311 -160.621
lowerback 20.8006 -4.08407 3.46007
upperback 4.07828 -4.96886 -0.726218
thorax -7.50104 -2.60955 -1.39375
lowerneck 4.10722 5.85974 0.301618
upperneck 11.7465 7.79289 -3.97025
head 3.26847 3.57915 -1.22161
rclavicle 2.4202e-014 1.11319e-014
rhumerus -33.9169 14.251 -87.5315
rradius 54.5791
rwrist 3.71574
rhand -35.7676 38.2546
rfingers 7.12502
rthumb -8.88552 8.46172
lclavicle 2.4202e-014 1.11319e-014
lhumerus -15.0274 -3.61585 65.3671
lradius 114.085
lwrist 22.7003
lhand -18.6584 -10.4853
lfingers 7.12502
lthumb 7.63492 19.3569
rfemur 1.91229 9.99088 19.9615
rtibia 26.9597
rfoot -16.8059 -10.9559
rtoes -13.837
lfemur 0.720845 -16.7245 -20.8669
ltibia 37.7447
lfoot -38.6806 21.242
ltoes 6.19905
104
root -1.18778 17.0992 -0.156256 148.372 -79.7109 -161.057
lowerback 20.6843 -3.93562 3.57555
upperback 4.0422 -4.7532 -0.775389
thorax -7.47974 -2.50725 -1.57768
lowerneck 4.09098 5.85098 0.250778
upperneck 11.8646 7.77761 -3.90939
head 3.30639 3.56782 -1.19207
rclavicle -7.35503e-015 8.34896e-015
rhumerus -33.5628 14.352 -87.8173
rradius 54.1155
rwrist 3.75443
rhand -35.4485 37.9068
rfingers 7.12502
rthumb -8.5776 8.10105
lclavicle -7.35503e-015 8.34896e-015
lhumerus -17.0644 -4.17989 65.6762
lradius 112.684
lwrist 22.6533
lhand -18.3586 -9.97026
lfingers 7.12502
lthumb 7.9242 19.8612
rfemur 2.53286 9.98674 20.1133
rtibia 26.235
rfoot -17.3515 -11.0737
rtoes -14.1469
lfemur 0.814355 -16.6523 -20.7872
ltibia 37.7089
lfoot -38.5763 21.2002
ltoes 6.03978
105
root -1.19978 17.097 -0.209618 148.822 -79.8241 -161.493
lowerback 20.5847 -3.79668 3.69943
upperback 3.99217 -4.54795 -0.840582
thorax -7.48372 -2.41026 -1.77885
lowerneck 4.15293 5.84461 0.147998
upperneck 11.9173 7.75637 -3.78732
head 3.30149 3.55596 -1.13668
rclavicle 3.49861e-014 -9.14409e-015
rhumerus -33.2673 14.4022 -88.1147
rradius 53.6565
rwrist 3.85749
rhand -35.1182 37.4907
rfingers 7.12502
rthumb -8.25889 7.67218
lclavicle 3.49861e-014 -9.14409e-015
lhumerus -18.9784 -4.70681 66.1346
lradius 111.076
lwrist 22.5464
lhand -17.9338 -9.43696
lfingers 7.12502
lthumb 8.33419 20.3786
rfemur 3.07099 10.1232 20.2951
rtibia 25.6264
rfoot -17.9177 -11.3765
rtoes -14.4376
lfemur 0.856156 -16.4581 -20.6534
ltibia 37.6609
lfoot -38.3759 21.0906
ltoes 5.69065
106
root -1.21086 17.0944 -0.262917 149.216 -79.9609 -161.881
lowerback 20.5003 -3.66485 3.83079
upperback 3.94722 -4.35094 -0.911302
thorax -7.49016 -2.31768 -1.98708
lowerneck 4.18028 5.82434 0.157786
upperneck 12.0183 7.72726 -3.75616
head 3.32982 3.54026 -1.12872
rclavicle -3.34952e-014 1.66979e-014
rhumerus -32.9867 14.3831 -88.3909
rradius 53.14
rwrist 4.06077
rhand -34.7872 37.1
rfingers 7.12502
rthumb -7.93942 7.2691
lclavicle -3.34952e-014 1.66979e-014
lhumerus -20.7888 -5.16207 66.7022
lradius 109.3
lwrist 22.4284
lhand -17.3785 -8.93664
lfingers 7.12502
lthumb 8.87013 20.8569
rfemur 3.55305 10.3618 20.5118
rtibia 25.12
rfoot -18.4649 -11.7634
rtoes -14.7075
lfemur 0.888279 -16.2305 -20.501
ltibia 37.6141
lfoot -38.1018 20.942
ltoes 5.39176
107
root -1.22091 17.092 -0.318026 149.47 -80.089 -162.133
lowerback 20.4192 -3.54277 3.95488
upperback 3.92202 -4.16893 -0.969613
thorax -7.47474 -2.23224 -2.17398
lowerneck 4.25178 5.80448 0.252367
upperneck 12.0534 7.70269 -3.77007
head 3.33365 3.53179 -1.15147
rclavicle -4.49253e-014 1.59028e-015
rhumerus -32.7182 14.3746 -88.672
rradius 52.6475
rwrist 4.30722
rhand -34.4409 36.6474
rfingers 7.12502
rthumb -7.60518 6.80415
lclavicle -4.49253e-014 1.59028e-015
lhumerus -22.5528 -5.46719 67.3419
lradius 107.402
lwrist 22.1889
lhand -16.7483 -8.4139
lfingers 7.12502
lthumb 9.47824 21.353
rfemur 3.99736 10.7469 20.8165
rtibia 24.6975
rfoot -18.9834 -12.3279
rtoes -14.7604
lfemur 0.902322 -15.9227 -20.277
ltibia 37.5824
lfoot -37.7813 20.7313
ltoes 5.0574
108
root -1.22975 17.0886 -0.375581 149.759 -80.2689 -162.389
lowerback 20.3127 -3.42477 4.00675
upperback 3.88995 -4.00547 -0.997345
thorax -7.44664 -2.15342 -2.28262
lowerneck 4.33544 5.79333 0.336928
upperneck 12.072 7.69215 -3.81973
head 3.33139 3.52915 -1.18443
rclavicle -1.50579e-014 -7.95139e-016
rhumerus -32.4574 14.3284 -88.8919
rradius 52.0984
rwrist 4.64464
rhand -34.0869 36.1906
rfingers 7.12502
rthumb -7.26349 6.33526
lclavicle -1.50579e-014 -7.95139e-016
lhumerus -24.2651 -5.65375 68.089
lradius 105.394
lwrist 21.9339
lhand -16.117 -7.82471
lfingers 7.12502
lthumb 10.0873 21.9135
rfemur 4.36875 11.2641 21.1481
rtibia 24.359
rfoot -19.5646 -13.0306
rtoes -14.747
lfemur 0.84963 -15.5706 -20.0248
ltibia 37.5654
lfoot -37.4138 20.437
ltoes 4.74316
109
root -1.23652 17.0864 -0.435147 149.821 -80.4446 -162.423
lowerback 20.2192 -3.30704 4.0797
upperback 3.87023 -3.83828 -1.02252
thorax -7.41208 -2.07332 -2.40079
lowerneck 4.42193 5.76638 0.502584
upperneck 12.1092 7.6658 -3.91398
head 3.34086 3.52026 -1.24601
rclavicle 2.39287e-014 2.78299e-015
rhumerus -32.1853 14.2315 -89.1181
rradius 51.5219
rwrist 4.98722
rhand -33.7265 35.6952
rfingers 7.12502
rthumb -6.91553 5.8282
lclavicle 2.39287e-014 2.78299e-015
lhumerus -25.8767 -5.75895 68.849
lradius 103.291
lwrist 21.5879
lhand -15.5467 -7.11132
lfingers 7.12502
lthumb 10.6374 22.5994
rfemur 4.71359 11.9125 21.5763
rtibia 24.0801
rfoot -20.1611 -13.8685
rtoes -14.6068
lfemur 0.758203 -15.1121 -19.6707
ltibia 37.5773
lfoot -36.9428 20.066
ltoes 4.28287
